<?xml version="1.0" encoding="UTF-8"?>
<svg width="76px" height="22px" viewBox="0 0 76 22" version="1.1" xmlns="http://www.w3.org/2000/svg" xmlns:xlink="http://www.w3.org/1999/xlink">
    <!-- Generator: Sketch 41.2 (35397) - http://www.bohemiancoding.com/sketch -->
    <title>stead-logo</title>
    <desc>Created with Sketch.</desc>
    <defs></defs>
    <g id="slice" stroke="none" stroke-width="1" fill="none" fill-rule="evenodd">
        <g id="stead-logo-" fill="#000000">
            <path d="M6.94527938,21.9299863 C3.81647228,21.9299863 1.44833925,20.6756504 0.0970221729,18.3026733 L0.0109955654,18.1515282 C-0.0125121951,18.1102153 0.00299113082,18.0577344 0.0452882483,18.0358183 L3.24815743,16.3733908 C3.28792683,16.3527344 3.33688027,16.3667573 3.35954545,16.4052992 L3.44043237,16.5427573 C4.24121286,17.9024748 5.50599778,18.6211695 7.09812195,18.6211695 C8.82699557,18.6211695 9.600898,17.7472992 9.600898,16.8812382 C9.600898,15.9584137 8.16860976,15.6682992 6.51009091,15.3322534 C6.38732816,15.3074824 6.26338581,15.2823756 6.13885366,15.2568489 C3.50716408,14.7014748 0.699882483,13.8313832 0.699882483,10.5149252 C0.699882483,9.24589466 1.28622838,8.05336031 2.35081818,7.15698626 C3.46115965,6.22207023 5.01385144,5.70716947 6.72284035,5.70716947 L6.79723947,5.70750534 C9.57739024,5.70750534 11.8131552,6.78752061 13.0922639,8.74862748 L13.190929,8.89977252 C13.2175543,8.94058168 13.2037361,8.99541374 13.1609335,9.01884122 L10.1716563,10.6591008 C10.133235,10.6801771 10.0849557,10.6682534 10.0608581,10.6317267 L9.97525277,10.5021618 C9.29234812,9.46614656 8.16296452,8.89565802 6.79538581,8.89565802 C5.62496896,8.89565802 4.44401996,9.37764275 4.44401996,10.4545511 C4.44401996,11.3325359 5.77090244,11.626345 7.77942572,12.0710473 L7.81894235,12.0798641 C10.4777627,12.6614366 13.3147029,13.5554595 13.3147029,16.8208641 C13.3147029,18.0217115 12.7517805,19.2872153 11.8088581,20.2060092 C11.0019268,20.9925511 9.51520843,21.9302382 7.01538137,21.9302382 L6.94527938,21.9299863 Z" id="Fill-1"></path>
            <path d="M21.2632581,21.9433206 C18.7834843,21.9433206 17.3242337,21.5072672 16.3647969,20.5198702 C15.4268457,19.5543893 15.0346284,18.0312672 15.0346284,15.4609618 L15.0320164,3.52293893 C15.0320164,3.49220611 15.0513113,3.45576336 15.0784421,3.4410687 L18.6976262,1.81348855 C18.7538257,1.7830916 18.8262027,1.82356489 18.8262027,1.88729771 L18.8262027,5.98912214 C18.8262027,6.03547328 18.8639499,6.0730916 18.9104599,6.0730916 L21.9437193,6.0730916 C21.9900608,6.0730916 22.0279765,6.11087786 22.0279765,6.15706107 L22.0279765,9.34790076 C22.0279765,9.39408397 21.9900608,9.43187023 21.9437193,9.43187023 L18.9104599,9.43187023 C18.8639499,9.43187023 18.8262027,9.46948855 18.8262027,9.51583969 L18.8262027,15.4308168 C18.8262027,18.0347099 19.0848723,18.3326336 21.7486639,18.3326336 L21.9437193,18.3326336 C21.9900608,18.3326336 22.0279765,18.3704198 22.0279765,18.4166031 L22.0279765,21.8593511 C22.0279765,21.9055344 21.9900608,21.9433206 21.9437193,21.9433206 L21.2632581,21.9433206 Z" id="Fill-3"></path>
            <path d="M49.8669282,9.14317481 C47.3212652,9.14317481 45.3271499,11.1835489 45.3271499,13.7882817 C45.3271499,16.4100603 47.3212652,18.4637855 49.8669282,18.4637855 C51.1193273,18.4637855 52.2730612,17.9789458 53.1153805,17.098358 C53.9480945,16.2279305 54.4067064,15.052358 54.4067064,13.7882817 C54.4067064,11.1835489 52.4125911,9.14317481 49.8669282,9.14317481 M49.3986266,21.9299611 C45.565008,21.9299611 41.5997796,18.8958924 41.5997796,13.8185947 C41.5997796,11.4914649 42.4453849,9.38769389 43.980804,7.89480076 C45.4317131,6.48402977 47.3660058,5.70714427 49.4273583,5.70714427 C51.1627197,5.70714427 52.8750789,6.35320534 54.0739747,7.45068626 C54.1275623,7.4998084 54.214263,7.46084656 54.214263,7.38821298 L54.214263,6.15705267 C54.214263,6.11070153 54.2519259,6.07308321 54.2985202,6.07308321 L57.92158,6.07308321 C57.9679215,6.07308321 58.0058373,6.11086947 58.0058373,6.15705267 L58.0058373,21.6074344 C58.0058373,21.6536176 57.9679215,21.6914038 57.92158,21.6914038 L54.2985202,21.6914038 C54.2519259,21.6914038 54.214263,21.6537855 54.214263,21.6074344 L54.214263,20.1598008 C54.214263,20.0860756 54.1252031,20.0476176 54.0722053,20.0990908 C52.8843472,21.2516557 51.162804,21.9299611 49.3986266,21.9299611" id="Fill-5"></path>
            <path d="M67.9394417,9.14317481 C65.3937787,9.14317481 63.3996634,11.1835489 63.3996634,13.7882817 C63.3996634,16.4100603 65.3937787,18.4637855 67.9394417,18.4637855 C69.1919251,18.4637855 70.3455747,17.9789458 71.187894,17.098358 C72.020608,16.2279305 72.47922,15.052358 72.47922,13.7882817 C72.47922,11.1835489 70.4851047,9.14317481 67.9394417,9.14317481 M67.4764483,21.9299611 C63.6415659,21.9299611 59.6749051,18.8958924 59.6749051,13.8185947 C59.6749051,11.4906252 60.5200049,9.3868542 62.0545814,7.89480076 C63.5055747,6.48402977 65.4415525,5.70714427 67.5058541,5.70714427 C69.2314417,5.70714427 70.9077388,6.34405267 72.1053707,7.42734275 C72.1591268,7.47604504 72.245322,7.43691527 72.245322,7.36461756 L72.245322,1.86663282 C72.245322,1.82506794 72.2680714,1.78854122 72.3025326,1.77031985 L75.8362798,0.0947091603 C75.8924794,0.0635564885 75.952639,0.104029771 75.952639,0.168098473 L75.952639,21.6074344 C75.952639,21.6536176 75.9147233,21.6914038 75.8683818,21.6914038 L72.3295792,21.6914038 C72.2832377,21.6914038 72.245322,21.6536176 72.245322,21.6074344 L72.245322,20.1849076 C72.245322,20.1113504 72.1567676,20.0728084 72.1036013,20.1237779 C70.9165858,21.2613962 69.2310204,21.9299611 67.4764483,21.9299611" id="Fill-7"></path>
            <path d="M31.8423064,9.03976641 C33.9218585,9.03976641 35.4173397,10.0671328 35.9774816,11.8419954 C35.9945016,11.8959038 35.9531313,11.9509878 35.8964262,11.9509878 L27.7045193,11.9509878 C27.6448652,11.9509878 27.6031579,11.8904458 27.6259916,11.8354458 C28.3288652,10.1385069 29.9596634,9.03976641 31.8423064,9.03976641 L31.8423064,9.03976641 Z M35.8542133,16.6619267 C35.8167188,16.6411023 35.7699561,16.6521863 35.7451002,16.6871176 C34.8902266,17.8856137 33.5510426,18.5581252 31.9636368,18.5581252 C29.6870914,18.5581252 27.9678231,17.3372092 27.423016,15.3315145 C27.408608,15.2783618 27.4497255,15.2257969 27.5049982,15.2257969 L39.8062976,15.2257969 C39.8528075,15.2257969 39.8905548,15.1881786 39.8905548,15.1418275 L39.8905548,13.6674076 C39.8905548,9.05496489 36.5126834,5.70718626 31.8423064,5.70718626 C29.6137033,5.70718626 27.5574905,6.54822443 26.041282,8.07554504 C24.5296235,9.59816336 23.7001113,11.6591939 23.7001113,13.8790107 C23.7001113,18.5440183 27.1756368,21.9300031 31.9622044,21.9300031 C34.9052244,21.9300031 37.3164971,20.6912855 38.8392776,18.4222626 C38.8666612,18.3815374 38.8529273,18.3256977 38.8099561,18.3018504 L35.8542133,16.6619267 Z" id="Fill-10"></path>
        </g>
    </g>
</svg>