<svg id="Layer_1" data-name="Layer 1" xmlns="http://www.w3.org/2000/svg" viewBox="0 0 75.95 21.86"><defs><style>.cls-1{fill:#fff;}</style></defs><title>stead-logo-white</title><g id="slice"><g id="stead-logo-"><path id="Fill-1" class="cls-1" d="M118.47,270.27c-3.13,0-5.5-1.25-6.85-3.63l-0.09-.15a0.08,0.08,0,0,1,0-.12l3.2-1.66a0.08,0.08,0,0,1,.11,0l0.08,0.14a4,4,0,0,0,3.66,2.08c1.73,0,2.5-.87,2.5-1.74s-1.43-1.21-3.09-1.55l-0.37-.08c-2.63-.56-5.44-1.43-5.44-4.74a4.38,4.38,0,0,1,1.65-3.36,6.76,6.76,0,0,1,4.37-1.45h0.07a7.17,7.17,0,0,1,6.3,3l0.1,0.15a0.08,0.08,0,0,1,0,.12l-3,1.64a0.08,0.08,0,0,1-.11,0l-0.09-.13a3.66,3.66,0,0,0-3.18-1.61c-1.17,0-2.35.48-2.35,1.56,0,0.88,1.33,1.17,3.34,1.62h0c2.66,0.58,5.5,1.48,5.5,4.74a4.87,4.87,0,0,1-1.51,3.39,6.6,6.6,0,0,1-4.79,1.72h-0.07Z" transform="translate(-111.52 -248.43)"/><path id="Fill-3" class="cls-1" d="M132.79,270.29c-2.48,0-3.94-.44-4.9-1.42s-1.33-2.49-1.33-5.06V251.87a0.1,0.1,0,0,1,0-.08l3.62-1.63a0.09,0.09,0,0,1,.13.07v4.1a0.08,0.08,0,0,0,.08.08h3a0.08,0.08,0,0,1,.08.08v3.19a0.08,0.08,0,0,1-.08.08h-3a0.08,0.08,0,0,0-.08.08v5.91c0,2.6.26,2.9,2.92,2.9h0.2a0.08,0.08,0,0,1,.08.08v3.44a0.08,0.08,0,0,1-.08.08h-0.68Z" transform="translate(-111.52 -248.43)"/><path id="Fill-5" class="cls-1" d="M161.39,257.49a4.66,4.66,0,0,0,0,9.32,4.45,4.45,0,0,0,3.25-1.37,4.75,4.75,0,0,0,1.29-3.31,4.54,4.54,0,0,0-4.54-4.65m-0.47,12.79a7.87,7.87,0,0,1-7.8-8.11,8.15,8.15,0,0,1,2.38-5.92,7.76,7.76,0,0,1,5.45-2.19,7,7,0,0,1,4.65,1.74,0.08,0.08,0,0,0,.14-0.06V254.5a0.08,0.08,0,0,1,.08-0.08h3.62a0.08,0.08,0,0,1,.08.08V270a0.08,0.08,0,0,1-.08.08h-3.62a0.08,0.08,0,0,1-.08-0.08V268.5a0.08,0.08,0,0,0-.14-0.06,6.78,6.78,0,0,1-4.67,1.83" transform="translate(-111.52 -248.43)"/><path id="Fill-7" class="cls-1" d="M179.46,257.49a4.66,4.66,0,0,0,0,9.32,4.45,4.45,0,0,0,3.25-1.37,4.75,4.75,0,0,0,1.29-3.31,4.54,4.54,0,0,0-4.54-4.65M179,270.27a7.88,7.88,0,0,1-7.8-8.11,8.15,8.15,0,0,1,2.38-5.92,7.77,7.77,0,0,1,5.45-2.19,6.92,6.92,0,0,1,4.6,1.72,0.08,0.08,0,0,0,.14-0.06v-5.5a0.11,0.11,0,0,1,.06-0.1l3.53-1.68a0.08,0.08,0,0,1,.12.07V270a0.08,0.08,0,0,1-.08.08h-3.54a0.08,0.08,0,0,1-.08-0.08v-1.42a0.08,0.08,0,0,0-.14-0.06,6.73,6.73,0,0,1-4.63,1.81" transform="translate(-111.52 -248.43)"/><path id="Fill-10" class="cls-1" d="M143.37,257.38a4,4,0,0,1,4.14,2.8,0.08,0.08,0,0,1-.08.11h-8.19a0.08,0.08,0,0,1-.08-0.12,4.52,4.52,0,0,1,4.22-2.8h0Zm4,7.62a0.08,0.08,0,0,0-.11,0,4.5,4.5,0,0,1-3.78,1.87,4.41,4.41,0,0,1-4.54-3.23,0.08,0.08,0,0,1,.08-0.11h12.3a0.08,0.08,0,0,0,.08-0.08V262a7.74,7.74,0,0,0-8-8,8,8,0,0,0-8.14,8.17,8.34,8.34,0,0,0,15.14,4.54,0.08,0.08,0,0,0,0-.12Z" transform="translate(-111.52 -248.43)"/></g></g></svg>